<?xml version="1.0" encoding="utf-8"?>
<!-- Generator: Adobe Illustrator 16.0.0, SVG Export Plug-In . SVG Version: 6.00 Build 0)  -->
<!DOCTYPE svg PUBLIC "-//W3C//DTD SVG 1.0//EN" "http://www.w3.org/TR/2001/REC-SVG-20010904/DTD/svg10.dtd">
<svg version="1.0" id="Layer_1" xmlns="http://www.w3.org/2000/svg" xmlns:xlink="http://www.w3.org/1999/xlink" x="0px" y="0px"
	 width="100px" height="100px" viewBox="0 0 100 100" enable-background="new 0 0 100 100" xml:space="preserve">
<path fill="#263238" d="M50,36.667c-7.363,0-13.333,5.97-13.333,13.333c0,7.366,5.97,13.333,13.333,13.333
	c7.359,0,13.333-5.967,13.333-13.333C63.333,42.637,57.359,36.667,50,36.667z M50,56.667c-3.682,0-6.667-2.981-6.667-6.667
	c0-3.682,2.985-6.667,6.667-6.667c3.68,0,6.667,2.985,6.667,6.667C56.667,53.686,53.68,56.667,50,56.667z"/>
<path fill="#8BC34A" d="M65.41,62.747c-2.995,3.617-7.246,6.14-12.077,6.953v6.735c7.292-0.912,13.651-4.764,17.888-10.336
	L65.41,62.747z"/>
<path fill="#8BC34A" d="M53.333,30.3c4.831,0.813,9.082,3.336,12.077,6.953l5.811-3.354c-4.234-5.572-10.596-9.423-17.888-10.335
	V30.3z"/>
<path fill="#8BC34A" d="M70,50c0,2.454-0.462,4.792-1.271,6.963l5.854,3.382c1.342-3.18,2.084-6.676,2.084-10.345
	s-0.742-7.161-2.084-10.345l-5.854,3.381C69.538,45.208,70,47.549,70,50z"/>
<path fill="#8BC34A" d="M30,50c0-2.451,0.462-4.792,1.27-6.963l-5.853-3.381c-1.342,3.18-2.084,6.676-2.084,10.345
	s0.742,7.165,2.084,10.345l5.853-3.382C30.462,54.792,30,52.454,30,50z"/>
<path fill="#8BC34A" d="M46.667,69.7c-4.831-0.813-9.082-3.336-12.077-6.953l-5.813,3.356c4.238,5.572,10.599,9.42,17.891,10.332
	L46.667,69.7L46.667,69.7z"/>
<path fill="#8BC34A" d="M34.59,37.253c2.995-3.617,7.243-6.14,12.077-6.953v-6.735c-7.295,0.911-13.655,4.763-17.891,10.334
	L34.59,37.253z"/>
<path fill="#263238" d="M16.667,46.667c0.97-9.763,6.165-18.256,13.711-23.698l-3.354-5.808C17.5,23.789,11.009,34.44,10,46.667
	H16.667z"/>
<path fill="#263238" d="M36.315,19.629c4.176-1.888,8.802-2.962,13.685-2.962s9.505,1.078,13.686,2.962l3.34-5.784
	C61.854,11.406,56.098,10,50,10c-6.102,0-11.855,1.403-17.023,3.845L36.315,19.629z"/>
<path fill="#263238" d="M69.622,22.972c7.546,5.439,12.744,13.937,13.711,23.695H90c-1.009-12.224-7.5-22.878-17.023-29.506
	L69.622,22.972z"/>
<path fill="#263238" d="M30.378,77.031c-7.546-5.442-12.741-13.937-13.711-23.698H10c1.009,12.224,7.5,22.878,17.023,29.506
	L30.378,77.031z"/>
<path fill="#263238" d="M63.686,80.371c-4.181,1.888-8.803,2.962-13.686,2.962s-9.505-1.074-13.685-2.962l-3.341,5.783
	C38.145,88.598,43.898,90,50,90c6.098,0,11.854-1.402,17.023-3.846L63.686,80.371z"/>
<path fill="#263238" d="M83.333,53.333c-0.97,9.76-6.165,18.252-13.707,23.694l3.353,5.808C82.5,76.208,88.991,65.557,90,53.333
	H83.333z"/>
</svg>
