<svg width="1920" height="1500" viewBox="0 0 1920 1500" fill="none" xmlns="http://www.w3.org/2000/svg">
<rect width="1920" height="1500" fill="#1E1E1E"/>
<g clip-path="url(#clip0_0_1)">
<path d="M1920 0H0V1500H1920V0Z" fill="#3C6255"/>
<path d="M0 639.539L32 680.095C64 720.512 128 801.623 192 764.817C256 728.012 320 573.289 384 608.289C448 643.289 512 867.734 576 903.15C640 938.567 704 784.956 768 757.595C832 730.234 896 829.4 960 782.317C1024 735.373 1088 542.317 1152 548.984C1216 555.789 1280 762.178 1344 784.4C1408 806.623 1472 644.678 1536 660.789C1600 677.039 1664 871.484 1728 897.178C1792 922.873 1856 779.817 1888 708.289L1920 636.762V1445.09H1888C1856 1445.09 1792 1445.09 1728 1445.09C1664 1445.09 1600 1445.09 1536 1445.09C1472 1445.09 1408 1445.09 1344 1445.09C1280 1445.09 1216 1445.09 1152 1445.09C1088 1445.09 1024 1445.09 960 1445.09C896 1445.09 832 1445.09 768 1445.09C704 1445.09 640 1445.09 576 1445.09C512 1445.09 448 1445.09 384 1445.09C320 1445.09 256 1445.09 192 1445.09C128 1445.09 64 1445.09 32 1445.09H0V639.539Z" fill="#61876E"/>
<path d="M0 995.833L32 1008.75C64 1021.81 128 1047.64 192 1056.94C256 1066.25 320 1058.75 384 980.556C448 902.361 512 753.194 576 678.75C640 604.167 704 604.167 768 624.722C832 645.417 896 686.528 960 770.139C1024 853.75 1088 979.583 1152 961.389C1216 943.056 1280 780.556 1344 718.333C1408 655.972 1472 694.028 1536 768.75C1600 843.472 1664 955.139 1728 976.389C1792 997.639 1856 928.75 1888 894.167L1920 859.722V1501.39H1888C1856 1501.39 1792 1501.39 1728 1501.39C1664 1501.39 1600 1501.39 1536 1501.39C1472 1501.39 1408 1501.39 1344 1501.39C1280 1501.39 1216 1501.39 1152 1501.39C1088 1501.39 1024 1501.39 960 1501.39C896 1501.39 832 1501.39 768 1501.39C704 1501.39 640 1501.39 576 1501.39C512 1501.39 448 1501.39 384 1501.39C320 1501.39 256 1501.39 192 1501.39C128 1501.39 64 1501.39 32 1501.39H0V995.833Z" fill="#5C806A"/>
<path d="M0 1006.94L32 1050.42C64 1094.03 128 1180.97 192 1209.72C256 1238.47 320 1208.75 384 1101.67C448 994.444 512 809.722 576 794.167C640 778.75 704 932.361 768 964.167C832 995.833 896 905.556 960 837.917C1024 770.417 1088 725.417 1152 724.028C1216 722.639 1280 764.861 1344 783.056C1408 801.389 1472 795.833 1536 849.583C1600 903.194 1664 1016.25 1728 1076.81C1792 1137.5 1856 1145.83 1888 1150L1920 1154.17V1501.39H1888C1856 1501.39 1792 1501.39 1728 1501.39C1664 1501.39 1600 1501.39 1536 1501.39C1472 1501.39 1408 1501.39 1344 1501.39C1280 1501.39 1216 1501.39 1152 1501.39C1088 1501.39 1024 1501.39 960 1501.39C896 1501.39 832 1501.39 768 1501.39C704 1501.39 640 1501.39 576 1501.39C512 1501.39 448 1501.39 384 1501.39C320 1501.39 256 1501.39 192 1501.39C128 1501.39 64 1501.39 32 1501.39H0V1006.94Z" fill="#577965"/>
<path d="M0 1141.67L32 1100.42C64 1059.31 128 976.806 192 944.028C256 911.111 320 927.778 384 921.944C448 916.25 512 887.917 576 867.639C640 847.222 704 834.722 768 844.444C832 854.167 896 886.111 960 878.472C1024 870.833 1088 823.611 1152 857.361C1216 891.25 1280 1005.97 1344 1080.14C1408 1154.17 1472 1187.5 1536 1168.47C1600 1149.58 1664 1078.19 1728 1051.11C1792 1024.03 1856 1041.25 1888 1049.72L1920 1058.33V1501.39H1888C1856 1501.39 1792 1501.39 1728 1501.39C1664 1501.39 1600 1501.39 1536 1501.39C1472 1501.39 1408 1501.39 1344 1501.39C1280 1501.39 1216 1501.39 1152 1501.39C1088 1501.39 1024 1501.39 960 1501.39C896 1501.39 832 1501.39 768 1501.39C704 1501.39 640 1501.39 576 1501.39C512 1501.39 448 1501.39 384 1501.39C320 1501.39 256 1501.39 192 1501.39C128 1501.39 64 1501.39 32 1501.39H0V1141.67Z" fill="#527361"/>
<path d="M0 1073.61L32 1081.25C64 1088.89 128 1104.17 192 1087.22C256 1070.42 320 1021.25 384 1046.53C448 1071.81 512 1171.25 576 1156.94C640 1142.64 704 1014.31 768 958.333C832 902.361 896 918.472 960 947.5C1024 976.389 1088 1018.06 1152 1007.36C1216 996.806 1280 933.75 1344 971.25C1408 1008.75 1472 1146.81 1536 1196.53C1600 1246.25 1664 1207.92 1728 1170.83C1792 1133.75 1856 1098.19 1888 1080.28L1920 1062.5V1501.39H1888C1856 1501.39 1792 1501.39 1728 1501.39C1664 1501.39 1600 1501.39 1536 1501.39C1472 1501.39 1408 1501.39 1344 1501.39C1280 1501.39 1216 1501.39 1152 1501.39C1088 1501.39 1024 1501.39 960 1501.39C896 1501.39 832 1501.39 768 1501.39C704 1501.39 640 1501.39 576 1501.39C512 1501.39 448 1501.39 384 1501.39C320 1501.39 256 1501.39 192 1501.39C128 1501.39 64 1501.39 32 1501.39H0V1073.61Z" fill="#4D6C5C"/>
<path d="M0 1090.28L32 1108.33C64 1126.39 128 1162.5 192 1194.44C256 1226.39 320 1254.17 384 1263.89C448 1273.61 512 1265.28 576 1224.03C640 1182.92 704 1108.75 768 1112.92C832 1117.08 896 1199.58 960 1253.19C1024 1306.94 1088 1331.94 1152 1295.42C1216 1258.75 1280 1160.69 1344 1106.25C1408 1051.81 1472 1041.25 1536 1035.14C1600 1029.17 1664 1027.78 1728 1044.86C1792 1062.08 1856 1097.64 1888 1115.56L1920 1133.33V1501.39H1888C1856 1501.39 1792 1501.39 1728 1501.39C1664 1501.39 1600 1501.39 1536 1501.39C1472 1501.39 1408 1501.39 1344 1501.39C1280 1501.39 1216 1501.39 1152 1501.39C1088 1501.39 1024 1501.39 960 1501.39C896 1501.39 832 1501.39 768 1501.39C704 1501.39 640 1501.39 576 1501.39C512 1501.39 448 1501.39 384 1501.39C320 1501.39 256 1501.39 192 1501.39C128 1501.39 64 1501.39 32 1501.39H0V1090.28Z" fill="#486557"/>
<path d="M0 1143.06L32 1175.69C64 1208.33 128 1273.61 192 1281.94C256 1290.28 320 1241.67 384 1232.64C448 1223.61 512 1254.17 576 1271.94C640 1289.86 704 1294.86 768 1290.97C832 1287.08 896 1274.03 960 1244.44C1024 1214.86 1088 1168.47 1152 1156.94C1216 1145.42 1280 1168.47 1344 1190.28C1408 1212.08 1472 1232.36 1536 1239.17C1600 1245.83 1664 1238.89 1728 1254.58C1792 1270.42 1856 1308.75 1888 1328.06L1920 1347.22V1501.39H1888C1856 1501.39 1792 1501.39 1728 1501.39C1664 1501.39 1600 1501.39 1536 1501.39C1472 1501.39 1408 1501.39 1344 1501.39C1280 1501.39 1216 1501.39 1152 1501.39C1088 1501.39 1024 1501.39 960 1501.39C896 1501.39 832 1501.39 768 1501.39C704 1501.39 640 1501.39 576 1501.39C512 1501.39 448 1501.39 384 1501.39C320 1501.39 256 1501.39 192 1501.39C128 1501.39 64 1501.39 32 1501.39H0V1143.06Z" fill="#445F53"/>
<path d="M0 1283.33L32 1271.11C64 1258.75 128 1234.31 192 1248.19C256 1262.08 320 1314.31 384 1312.08C448 1309.72 512 1252.78 576 1228.19C640 1203.75 704 1211.53 768 1221.81C832 1231.94 896 1244.44 960 1248.89C1024 1253.19 1088 1249.58 1152 1279.44C1216 1309.31 1280 1372.64 1344 1365C1408 1357.36 1472 1278.75 1536 1278.89C1600 1279.17 1664 1358.33 1728 1366.25C1792 1374.03 1856 1310.69 1888 1278.89L1920 1247.22V1501.39H1888C1856 1501.39 1792 1501.39 1728 1501.39C1664 1501.39 1600 1501.39 1536 1501.39C1472 1501.39 1408 1501.39 1344 1501.39C1280 1501.39 1216 1501.39 1152 1501.39C1088 1501.39 1024 1501.39 960 1501.39C896 1501.39 832 1501.39 768 1501.39C704 1501.39 640 1501.39 576 1501.39C512 1501.39 448 1501.39 384 1501.39C320 1501.39 256 1501.39 192 1501.39C128 1501.39 64 1501.39 32 1501.39H0V1283.33Z" fill="#3F584E"/>
<path d="M0 1429.17L32 1415.28C64 1401.39 128 1373.61 192 1350.28C256 1326.81 320 1307.92 384 1307.64C448 1307.36 512 1325.97 576 1325.42C640 1325 704 1305.56 768 1310.83C832 1316.25 896 1346.25 960 1371.94C1024 1397.64 1088 1419.03 1152 1426.67C1216 1434.31 1280 1428.19 1344 1413.89C1408 1399.58 1472 1376.81 1536 1382.36C1600 1387.92 1664 1421.81 1728 1441.67C1792 1461.53 1856 1467.64 1888 1470.56L1920 1473.61V1501.39H1888C1856 1501.39 1792 1501.39 1728 1501.39C1664 1501.39 1600 1501.39 1536 1501.39C1472 1501.39 1408 1501.39 1344 1501.39C1280 1501.39 1216 1501.39 1152 1501.39C1088 1501.39 1024 1501.39 960 1501.39C896 1501.39 832 1501.39 768 1501.39C704 1501.39 640 1501.39 576 1501.39C512 1501.39 448 1501.39 384 1501.39C320 1501.39 256 1501.39 192 1501.39C128 1501.39 64 1501.39 32 1501.39H0V1429.17Z" fill="#3B5249"/>
</g>
<path d="M0 335.917L32 346.599C64 357.41 128 378.775 192 385.468C256 392.16 320 383.923 384 391.645C448 399.368 512 423.049 576 422.148C640 421.247 704 396.021 768 370.924C832 345.827 896 320.858 960 329.095C1024 337.204 1088 378.389 1152 383.28C1216 388.299 1280 356.895 1344 339.52C1408 322.145 1472 318.799 1536 322.017C1600 325.234 1664 335.016 1728 339.134C1792 343.253 1856 341.451 1888 340.679L1920 339.778V0H1888C1856 0 1792 0 1728 0C1664 0 1600 0 1536 0C1472 0 1408 0 1344 0C1280 0 1216 0 1152 0C1088 0 1024 0 960 0C896 0 832 0 768 0C704 0 640 0 576 0C512 0 448 0 384 0C320 0 256 0 192 0C128 0 64 0 32 0H0V335.917Z" fill="#61876E"/>
<path d="M0 315.324L32 330.382C64 345.312 128 375.429 192 380.706C256 386.111 320 366.806 384 348.401C448 329.868 512 312.364 576 300.523C640 288.682 704 282.762 768 296.276C832 309.79 896 342.738 960 347.114C1024 351.361 1088 326.907 1152 328.838C1216 330.769 1280 359.083 1344 357.41C1408 355.608 1472 323.947 1536 307.344C1600 290.87 1664 289.583 1728 284.178C1792 278.901 1856 269.377 1888 264.744L1920 259.981V0H1888C1856 0 1792 0 1728 0C1664 0 1600 0 1536 0C1472 0 1408 0 1344 0C1280 0 1216 0 1152 0C1088 0 1024 0 960 0C896 0 832 0 768 0C704 0 640 0 576 0C512 0 448 0 384 0C320 0 256 0 192 0C128 0 64 0 32 0H0V315.324Z" fill="#5A7E68"/>
<path d="M0 212.361L32 234.498C64 256.506 128 300.781 192 301.424C256 302.068 320 259.081 384 250.972C448 242.864 512 269.377 576 289.841C640 310.176 704 324.333 768 314.294C832 304.127 896 269.892 960 260.239C1024 250.586 1088 265.516 1152 270.278C1216 275.04 1280 269.377 1344 273.753C1408 278 1472 292.157 1536 294.474C1600 296.919 1664 287.395 1728 274.139C1792 260.882 1856 243.636 1888 235.142L1920 226.519V0H1888C1856 0 1792 0 1728 0C1664 0 1600 0 1536 0C1472 0 1408 0 1344 0C1280 0 1216 0 1152 0C1088 0 1024 0 960 0C896 0 832 0 768 0C704 0 640 0 576 0C512 0 448 0 384 0C320 0 256 0 192 0C128 0 64 0 32 0H0V212.361Z" fill="#537562"/>
<path d="M0 171.176L32 188.165C64 205.025 128 239.003 192 252.002C256 265.13 320 257.407 384 242.864C448 228.192 512 206.827 576 208.243C640 209.787 704 234.241 768 234.498C832 234.627 896 210.688 960 209.53C1024 208.5 1088 230.38 1152 234.627C1216 239.003 1280 225.618 1344 220.984C1408 216.222 1472 220.083 1536 224.974C1600 229.994 1664 235.914 1728 238.488C1792 241.062 1856 240.29 1888 239.775L1920 239.389V0H1888C1856 0 1792 0 1728 0C1664 0 1600 0 1536 0C1472 0 1408 0 1344 0C1280 0 1216 0 1152 0C1088 0 1024 0 960 0C896 0 832 0 768 0C704 0 640 0 576 0C512 0 448 0 384 0C320 0 256 0 192 0C128 0 64 0 32 0H0V171.176Z" fill="#4D6C5C"/>
<path d="M0 191.769H32C64 191.769 128 191.769 192 188.937C256 186.234 320 180.571 384 169.889C448 159.206 512 143.247 576 142.604C640 141.96 704 156.632 768 158.306C832 159.979 896 148.91 960 147.108C1024 145.435 1088 153.157 1152 150.326C1216 147.623 1280 134.238 1344 139.644C1408 145.049 1472 168.988 1536 179.542C1600 190.095 1664 187.006 1728 189.452C1792 191.769 1856 199.491 1888 203.352L1920 207.213V0H1888C1856 0 1792 0 1728 0C1664 0 1600 0 1536 0C1472 0 1408 0 1344 0C1280 0 1216 0 1152 0C1088 0 1024 0 960 0C896 0 832 0 768 0C704 0 640 0 576 0C512 0 448 0 384 0C320 0 256 0 192 0C128 0 64 0 32 0H0V191.769Z" fill="#476356"/>
<path d="M0 137.713L32 137.456C64 137.327 128 136.812 192 129.347C256 121.882 320 107.21 384 108.369C448 109.398 512 126.13 576 129.733C640 133.466 704 123.942 768 114.289C832 104.636 896 94.8546 960 101.419C1024 108.111 1088 131.278 1152 143.119C1216 154.831 1280 155.345 1344 147.108C1408 139 1472 122.269 1536 118.15C1600 114.16 1664 122.655 1728 119.308C1792 115.833 1856 100.389 1888 92.6667L1920 84.9444V0H1888C1856 0 1792 0 1728 0C1664 0 1600 0 1536 0C1472 0 1408 0 1344 0C1280 0 1216 0 1152 0C1088 0 1024 0 960 0C896 0 832 0 768 0C704 0 640 0 576 0C512 0 448 0 384 0C320 0 256 0 192 0C128 0 64 0 32 0H0V137.713Z" fill="#415B4F"/>
<path d="M0 100.389L32 95.6269C64 90.9935 128 81.4694 192 76.8361C256 72.0741 320 72.0741 384 69.1139C448 66.025 512 60.1046 576 62.8074C640 65.6389 704 77.2222 768 80.1824C832 83.2713 896 77.6083 960 75.0343C1024 72.4602 1088 72.975 1152 70.5296C1216 68.213 1280 63.0648 1344 64.0944C1408 65.2528 1472 72.4602 1536 71.4306C1600 70.4009 1664 60.8769 1728 57.5306C1792 54.0556 1856 56.6296 1888 57.9167L1920 59.2037V0H1888C1856 0 1792 0 1728 0C1664 0 1600 0 1536 0C1472 0 1408 0 1344 0C1280 0 1216 0 1152 0C1088 0 1024 0 960 0C896 0 832 0 768 0C704 0 640 0 576 0C512 0 448 0 384 0C320 0 256 0 192 0C128 0 64 0 32 0H0V100.389Z" fill="#3B5249"/>
<defs>
<clipPath id="clip0_0_1">
<rect width="1920" height="1500" fill="white"/>
</clipPath>
</defs>
</svg>
